<svg width="800" height="400" viewBox="0 0 800 400" fill="none" xmlns="http://www.w3.org/2000/svg">
<g clip-path="url(#clip0)">
<path d="M414.354 153.188C412.957 159.63 409.336 163.208 409.336 163.208H401.864C401.864 163.208 405.564 159.758 405.964 152.601C406.259 147.387 403.383 142 403.383 142H413.886C413.886 142 415.616 147.387 414.354 153.188Z" fill="#FCD60E"/>
<path d="M233.391 169.17L233.413 187.258L304.521 187.247V195.325L233.413 195.336L233.391 214.25H315.792V222.551H224V161.059H315.792V169.17H233.391Z" fill="#FCD60E"/>
<path d="M397.564 161.818C388.09 178.678 370.911 208.729 364.558 220.151H355.685C344.859 200.913 333.566 182.664 321.883 161.818H332.637L360.297 209.058L387.884 161.813H397.564V161.818Z" fill="#FCD60E"/>
<path d="M464.761 175.423C465.156 178.627 464.817 181.491 464.817 181.491L456.328 181.413C456.328 181.413 457.635 172.794 448.306 172.353C436.734 171.811 430.854 187.576 431.154 198.987C431.154 198.987 431.021 211.213 431.021 220.156C426.409 220.156 426.242 220.156 421.63 220.156C421.63 200.768 421.669 181.341 421.664 161.952H430.426C430.426 167.808 430.431 173.888 430.431 179.744C430.431 179.744 432.412 170.516 439.627 164.928C448.083 158.391 462.842 159.836 464.761 175.423Z" fill="#FCD60E"/>
<path d="M544.169 216.36L521.589 259.006H512.332L532.876 220.201L470.97 161.891H481.707L536.648 212.408L564.792 161.891H575.006C566.472 177.098 551.652 203.062 544.169 216.36Z" fill="#FCD60E"/>
</g>
<defs>
<clipPath id="clip0">
<rect width="351" height="117" fill="white" transform="translate(224 142)"/>
</clipPath>
</defs>
</svg>
