<svg width="800" height="400" viewBox="0 0 800 400" fill="none" xmlns="http://www.w3.org/2000/svg">
<path d="M226.89 207.711C226.89 210.085 226.297 212.321 225.112 214.419C223.927 216.517 222.149 218.349 219.779 219.917C217.408 221.485 214.445 222.729 210.89 223.651C207.357 224.55 203.221 225 198.48 225C193.739 225 189.579 224.55 186 223.651C182.445 222.729 179.482 221.485 177.111 219.917C174.741 218.349 172.963 216.517 171.778 214.419C170.593 212.321 170 210.085 170 207.711V176.21H182.898V203.112C182.898 204.703 183.095 206.213 183.49 207.642C183.909 209.048 184.676 210.281 185.791 211.342C186.93 212.402 188.51 213.243 190.532 213.866C192.577 214.488 195.226 214.799 198.48 214.799C201.71 214.799 204.336 214.488 206.358 213.866C208.38 213.243 209.948 212.402 211.064 211.342C212.203 210.281 212.97 209.048 213.365 207.642C213.76 206.213 213.957 204.703 213.957 203.112V176.21H226.89V207.711Z" fill="#DB504A"/>
<path d="M287.161 223.721V197.095C287.161 195.32 287.01 193.718 286.708 192.289C286.406 190.837 285.837 189.604 285 188.589C284.187 187.552 283.036 186.757 281.549 186.203C280.085 185.627 278.191 185.339 275.867 185.339C274.101 185.339 272.242 185.581 270.289 186.065C268.361 186.526 266.443 187.148 264.538 187.932C262.632 188.716 260.808 189.627 259.065 190.664C257.345 191.701 255.811 192.785 254.463 193.914V223.721H241.531V176.21H254.463V182.711C256.09 181.789 257.822 180.878 259.657 179.979C261.493 179.057 263.445 178.227 265.514 177.49C267.582 176.752 269.778 176.153 272.102 175.692C274.426 175.231 276.878 175 279.457 175C282.688 175 285.569 175.392 288.102 176.176C290.659 176.936 292.82 178.031 294.586 179.461C296.352 180.867 297.7 182.584 298.63 184.613C299.583 186.618 300.059 188.866 300.059 191.355V223.721H287.161Z" fill="#DB504A"/>
<path d="M327.807 223.721H314.874V176.21H347.293C350.779 176.21 353.73 176.568 356.147 177.282C358.587 177.997 360.563 179.011 362.073 180.325C363.607 181.639 364.711 183.23 365.385 185.097C366.082 186.941 366.431 189.004 366.431 191.286C366.431 193.292 366.14 195.044 365.559 196.542C365.002 198.041 364.235 199.331 363.259 200.415C362.306 201.475 361.19 202.374 359.912 203.112C358.634 203.85 357.286 204.461 355.868 204.945L371.555 223.721H356.426L341.925 206.224H327.807V223.721ZM353.359 191.217C353.359 190.295 353.231 189.511 352.975 188.866C352.743 188.22 352.324 187.702 351.72 187.31C351.116 186.895 350.303 186.595 349.28 186.411C348.281 186.226 347.026 186.134 345.515 186.134H327.807V196.3H345.515C347.026 196.3 348.281 196.208 349.28 196.024C350.303 195.839 351.116 195.551 351.72 195.159C352.324 194.744 352.743 194.214 352.975 193.568C353.231 192.923 353.359 192.139 353.359 191.217Z" fill="#DB504A"/>
<path d="M421.438 223.721V219.053C419.788 219.952 418.011 220.747 416.105 221.438C414.222 222.13 412.259 222.718 410.214 223.202C408.169 223.686 406.054 224.043 403.869 224.274C401.708 224.527 399.524 224.654 397.316 224.654C394.736 224.654 392.238 224.412 389.821 223.928C387.428 223.444 385.301 222.66 383.442 221.577C381.583 220.493 380.084 219.076 378.945 217.324C377.83 215.572 377.272 213.428 377.272 210.892C377.272 207.688 378.155 205.025 379.921 202.905C381.687 200.761 384.383 199.009 388.008 197.649C391.634 196.289 396.212 195.24 401.743 194.502C407.297 193.764 413.862 193.188 421.438 192.773V191.77C421.438 190.987 421.229 190.214 420.811 189.454C420.393 188.67 419.626 187.99 418.51 187.414C417.418 186.814 415.907 186.33 413.978 185.961C412.073 185.592 409.633 185.408 406.658 185.408C404.311 185.408 401.987 185.535 399.686 185.788C397.409 186.019 395.201 186.342 393.063 186.757C390.948 187.172 388.938 187.656 387.032 188.209C385.127 188.762 383.395 189.338 381.838 189.938V178.527C383.465 178.112 385.289 177.709 387.311 177.317C389.333 176.925 391.436 176.591 393.621 176.314C395.805 176.014 398.013 175.784 400.244 175.622C402.475 175.438 404.613 175.346 406.658 175.346C410.678 175.346 414.385 175.68 417.778 176.349C421.171 176.994 424.088 178.008 426.528 179.391C428.991 180.775 430.908 182.527 432.279 184.647C433.674 186.768 434.371 189.292 434.371 192.22V223.721H421.438ZM421.438 202.04C416.465 202.225 412.236 202.49 408.75 202.835C405.287 203.181 402.405 203.585 400.105 204.046C397.804 204.507 395.991 205.002 394.667 205.533C393.365 206.063 392.389 206.604 391.738 207.158C391.088 207.711 390.681 208.264 390.518 208.817C390.379 209.371 390.309 209.878 390.309 210.339C390.309 210.892 390.46 211.434 390.762 211.964C391.064 212.471 391.587 212.921 392.331 213.313C393.098 213.704 394.109 214.016 395.364 214.246C396.619 214.477 398.199 214.592 400.105 214.592C402.219 214.592 404.288 214.431 406.309 214.108C408.331 213.785 410.249 213.347 412.061 212.794C413.874 212.218 415.57 211.549 417.151 210.788C418.754 210.005 420.183 209.175 421.438 208.299V202.04Z" fill="#DB504A"/>
<path d="M481.291 223.721H466.232L442.005 176.21H456.437L473.866 211.964L491.261 176.21H505.693L481.291 223.721Z" fill="#DB504A"/>
<path d="M566.278 221.369C562.35 222.66 558.423 223.582 554.495 224.136C550.591 224.712 546.594 225 542.504 225C537.275 225 532.615 224.447 528.525 223.34C524.458 222.211 521.031 220.586 518.242 218.465C515.453 216.344 513.327 213.751 511.863 210.685C510.399 207.619 509.667 204.149 509.667 200.277C509.667 196.68 510.399 193.349 511.863 190.284C513.35 187.195 515.442 184.521 518.137 182.261C520.856 179.979 524.133 178.204 527.968 176.936C531.802 175.645 536.078 175 540.796 175C545.141 175 549.115 175.588 552.717 176.763C556.343 177.916 559.445 179.633 562.025 181.916C564.628 184.198 566.638 187.01 568.055 190.353C569.496 193.695 570.217 197.545 570.217 201.902V205.083H523.018C523.436 206.581 524.121 207.953 525.074 209.198C526.05 210.443 527.363 211.503 529.013 212.379C530.663 213.255 532.685 213.935 535.079 214.419C537.496 214.903 540.377 215.145 543.724 215.145C546.094 215.145 548.418 215.007 550.696 214.73C552.973 214.431 555.1 214.05 557.075 213.589C559.05 213.105 560.828 212.575 562.408 211.999C564.012 211.422 565.302 210.846 566.278 210.27V221.369ZM557.354 195.678C557.238 194.502 556.877 193.292 556.273 192.047C555.692 190.779 554.763 189.638 553.484 188.624C552.206 187.609 550.533 186.78 548.465 186.134C546.396 185.466 543.817 185.131 540.726 185.131C537.821 185.131 535.311 185.489 533.196 186.203C531.082 186.918 529.304 187.805 527.863 188.866C526.445 189.926 525.342 191.067 524.551 192.289C523.761 193.511 523.25 194.64 523.018 195.678H557.354Z" fill="#DB504A"/>
<path d="M594.897 203.389C594.897 205.371 595.083 206.996 595.455 208.264C595.827 209.509 596.431 210.5 597.267 211.238C598.104 211.976 599.185 212.483 600.509 212.759C601.857 213.036 603.507 213.174 605.459 213.174H630V223.721H602.81C599.045 223.721 595.838 223.421 593.189 222.822C590.563 222.199 588.413 221.254 586.74 219.986C585.067 218.695 583.847 217.07 583.08 215.111C582.336 213.151 581.964 210.823 581.964 208.126V176.21H594.897V203.389Z" fill="#DB504A"/>
</svg>
